<svg xmlns="http://www.w3.org/2000/svg" xmlns:xlink="http://www.w3.org/1999/xlink" id="processonSvg1000" viewBox="39.0 31.25 801.0 816.5" width="801.0" height="816.5"><defs id="ProcessOnDefs1001"><marker id="ProcessOnMarker1015" markerUnits="userSpaceOnUse" orient="auto" markerWidth="16.23606797749979" markerHeight="10.550836550532098" viewBox="-1.0 -1.3763819204711736 16.23606797749979 10.550836550532098" refX="-1.0" refY="3.8990363547948754"><path id="ProcessOnPath1016" d="M12.0 3.8990363547948754L0.0 7.798072709589751V0.0Z" stroke="#323232" stroke-width="2.0" fill="#323232" transform="matrix(1.0,0.0,0.0,1.0,0.0,0.0)"/></marker><marker id="ProcessOnMarker1028" markerUnits="userSpaceOnUse" orient="auto" markerWidth="16.23606797749979" markerHeight="10.550836550532098" viewBox="-1.0 -1.3763819204711736 16.23606797749979 10.550836550532098" refX="-1.0" refY="3.8990363547948754"><path id="ProcessOnPath1029" d="M12.0 3.8990363547948754L0.0 7.798072709589751V0.0Z" stroke="#323232" stroke-width="2.0" fill="#323232" transform="matrix(1.0,0.0,0.0,1.0,0.0,0.0)"/></marker><marker id="ProcessOnMarker1044" markerUnits="userSpaceOnUse" orient="auto" markerWidth="16.23606797749979" markerHeight="10.550836550532098" viewBox="-1.0 -1.3763819204711736 16.23606797749979 10.550836550532098" refX="-1.0" refY="3.8990363547948754"><path id="ProcessOnPath1045" d="M12.0 3.8990363547948754L0.0 7.798072709589751V0.0Z" stroke="#323232" stroke-width="2.0" fill="#323232" transform="matrix(1.0,0.0,0.0,1.0,0.0,0.0)"/></marker><marker id="ProcessOnMarker1048" markerUnits="userSpaceOnUse" orient="auto" markerWidth="16.23606797749979" markerHeight="10.550836550532098" viewBox="-1.0 -1.3763819204711736 16.23606797749979 10.550836550532098" refX="-1.0" refY="3.8990363547948754"><path id="ProcessOnPath1049" d="M12.0 3.8990363547948754L0.0 7.798072709589751V0.0Z" stroke="#323232" stroke-width="2.0" fill="#323232" transform="matrix(1.0,0.0,0.0,1.0,0.0,0.0)"/></marker><marker id="ProcessOnMarker1063" markerUnits="userSpaceOnUse" orient="auto" markerWidth="16.23606797749979" markerHeight="10.550836550532098" viewBox="-1.0 -1.3763819204711736 16.23606797749979 10.550836550532098" refX="-1.0" refY="3.8990363547948754"><path id="ProcessOnPath1064" d="M12.0 3.8990363547948754L0.0 7.798072709589751V0.0Z" stroke="#323232" stroke-width="2.0" fill="#323232" transform="matrix(1.0,0.0,0.0,1.0,0.0,0.0)"/></marker><marker id="ProcessOnMarker1090" markerUnits="userSpaceOnUse" orient="auto" markerWidth="16.23606797749979" markerHeight="10.550836550532098" viewBox="-1.0 -1.3763819204711736 16.23606797749979 10.550836550532098" refX="-1.0" refY="3.8990363547948754"><path id="ProcessOnPath1091" d="M12.0 3.8990363547948754L0.0 7.798072709589751V0.0Z" stroke="#323232" stroke-width="2.0" fill="#323232" transform="matrix(1.0,0.0,0.0,1.0,0.0,0.0)"/></marker><marker id="ProcessOnMarker1094" markerUnits="userSpaceOnUse" orient="auto" markerWidth="16.23606797749979" markerHeight="10.550836550532098" viewBox="-1.0 -1.3763819204711736 16.23606797749979 10.550836550532098" refX="-1.0" refY="3.8990363547948754"><path id="ProcessOnPath1095" d="M12.0 3.8990363547948754L0.0 7.798072709589751V0.0Z" stroke="#323232" stroke-width="2.0" fill="#323232" transform="matrix(1.0,0.0,0.0,1.0,0.0,0.0)"/></marker><marker id="ProcessOnMarker1098" markerUnits="userSpaceOnUse" orient="auto" markerWidth="16.23606797749979" markerHeight="10.550836550532098" viewBox="-1.0 -1.3763819204711736 16.23606797749979 10.550836550532098" refX="-1.0" refY="3.8990363547948754"><path id="ProcessOnPath1099" d="M12.0 3.8990363547948754L0.0 7.798072709589751V0.0Z" stroke="#323232" stroke-width="2.0" fill="#323232" transform="matrix(1.0,0.0,0.0,1.0,0.0,0.0)"/></marker><marker id="ProcessOnMarker1102" markerUnits="userSpaceOnUse" orient="auto" markerWidth="16.23606797749979" markerHeight="10.550836550532098" viewBox="-1.0 -1.3763819204711736 16.23606797749979 10.550836550532098" refX="-1.0" refY="3.8990363547948754"><path id="ProcessOnPath1103" d="M12.0 3.8990363547948754L0.0 7.798072709589751V0.0Z" stroke="#323232" stroke-width="2.0" fill="#323232" transform="matrix(1.0,0.0,0.0,1.0,0.0,0.0)"/></marker><marker id="ProcessOnMarker1106" markerUnits="userSpaceOnUse" orient="auto" markerWidth="16.23606797749979" markerHeight="10.550836550532098" viewBox="-1.0 -1.3763819204711736 16.23606797749979 10.550836550532098" refX="-1.0" refY="3.8990363547948754"><path id="ProcessOnPath1107" d="M12.0 3.8990363547948754L0.0 7.798072709589751V0.0Z" stroke="#323232" stroke-width="2.0" fill="#323232" transform="matrix(1.0,0.0,0.0,1.0,0.0,0.0)"/></marker><marker id="ProcessOnMarker1110" markerUnits="userSpaceOnUse" orient="auto" markerWidth="16.23606797749979" markerHeight="10.550836550532098" viewBox="-1.0 -1.3763819204711736 16.23606797749979 10.550836550532098" refX="-1.0" refY="3.8990363547948754"><path id="ProcessOnPath1111" d="M12.0 3.8990363547948754L0.0 7.798072709589751V0.0Z" stroke="#323232" stroke-width="2.0" fill="#323232" transform="matrix(1.0,0.0,0.0,1.0,0.0,0.0)"/></marker><marker id="ProcessOnMarker1114" markerUnits="userSpaceOnUse" orient="auto" markerWidth="16.23606797749979" markerHeight="10.550836550532098" viewBox="-1.0 -1.3763819204711736 16.23606797749979 10.550836550532098" refX="-1.0" refY="3.8990363547948754"><path id="ProcessOnPath1115" d="M12.0 3.8990363547948754L0.0 7.798072709589751V0.0Z" stroke="#323232" stroke-width="2.0" fill="#323232" transform="matrix(1.0,0.0,0.0,1.0,0.0,0.0)"/></marker></defs><g id="ProcessOnG1002"><path id="ProcessOnPath1003" d="M39.0 31.25H840.0V847.75H39.0V31.25Z" fill="none"/><g id="ProcessOnG1004"><g id="ProcessOnG1005" transform="matrix(1.0,0.0,0.0,1.0,127.0,51.25)" opacity="1.0"><path id="ProcessOnPath1006" d="M0.0 4.0Q0.0 0.0 4.0 0.0L140.0 0.0Q144.0 0.0 144.0 4.0L144.0 42.0Q144.0 46.0 140.0 46.0L4.0 46.0Q0.0 46.0 0.0 42.0Z" stroke="#323232" stroke-width="2.0" stroke-dasharray="none" opacity="1.0" fill="#66cc00"/><g id="ProcessOnG1007" transform="matrix(1.0,0.0,0.0,1.0,10.0,14.25)"><text id="ProcessOnText1008" fill="#000000" font-size="14" x="61.0" y="14.350000000000001" font-family="微软雅黑" font-weight="normal" font-style="normal" text-decoration="none" family="微软雅黑" text-anchor="middle" size="14">addNewFeatures()</text></g></g><g id="ProcessOnG1009" transform="matrix(1.0,0.0,0.0,1.0,80.0,137.33333333333331)" opacity="1.0"><path id="ProcessOnPath1010" d="M0.0 4.0Q0.0 0.0 4.0 0.0L233.83333333333331 0.0Q237.83333333333331 0.0 237.83333333333331 4.0L237.83333333333331 36.58333333333334Q237.83333333333331 40.58333333333334 233.83333333333331 40.58333333333334L4.0 40.58333333333334Q0.0 40.58333333333334 0.0 36.58333333333334Z" stroke="#323232" stroke-width="2.0" stroke-dasharray="none" opacity="1.0" fill="#66cc00"/><g id="ProcessOnG1011" transform="matrix(1.0,0.0,0.0,1.0,10.0,11.541666666666671)"><text id="ProcessOnText1012" fill="#000000" font-size="14" x="0.0" y="14.350000000000001" font-family="微软雅黑" font-weight="normal" font-style="normal" text-decoration="none" family="微软雅黑" text-anchor="start" size="14">1.建立mask,防止重复检测特征点</text></g></g><g id="ProcessOnG1013"><path id="ProcessOnPath1014" d="M199.0 97.25L199.0 117.29166666666666L198.91666666666669 117.29166666666666L198.91666666666669 122.09726535583353" stroke="#323232" stroke-width="2.0" stroke-dasharray="none" fill="none" marker-end="url(#ProcessOnMarker1015)"/></g><g id="ProcessOnG1017" transform="matrix(1.0,0.0,0.0,1.0,65.0,222.25)" opacity="1.0"><path id="ProcessOnPath1018" d="M0.0 4.0Q0.0 0.0 4.0 0.0L264.0 0.0Q268.0 0.0 268.0 4.0L268.0 133.75Q268.0 137.75 264.0 137.75L4.0 137.75Q0.0 137.75 0.0 133.75Z" stroke="#323232" stroke-width="2.0" stroke-dasharray="none" opacity="1.0" fill="#66cc00"/><g id="ProcessOnG1019" transform="matrix(1.0,0.0,0.0,1.0,10.0,16.375)"><text id="ProcessOnText1020" fill="#000000" font-size="14" x="0.0" y="14.350000000000001" font-family="微软雅黑" font-weight="normal" font-style="normal" text-decoration="none" family="微软雅黑" text-anchor="start" size="14">2.检测新的特征点,并将新特征点分配到</text><text id="ProcessOnText1021" fill="#000000" font-size="14" x="0.0" y="31.85" font-family="微软雅黑" font-weight="normal" font-style="normal" text-decoration="none" family="微软雅黑" text-anchor="start" size="14">每个网格,然后按照每个网格特征点的响</text><text id="ProcessOnText1022" fill="#000000" font-size="14" x="0.0" y="49.35" font-family="微软雅黑" font-weight="normal" font-style="normal" text-decoration="none" family="微软雅黑" text-anchor="start" size="14">应排序,使得每个网格特征点的数量不超</text><text id="ProcessOnText1023" fill="#000000" font-size="14" x="0.0" y="66.85" font-family="微软雅黑" font-weight="normal" font-style="normal" text-decoration="none" family="微软雅黑" text-anchor="start" size="14">网格特征点最大数量限制并且不超过本</text><text id="ProcessOnText1024" fill="#000000" font-size="14" x="0.0" y="84.35" font-family="微软雅黑" font-weight="normal" font-style="normal" text-decoration="none" family="微软雅黑" text-anchor="start" size="14">身包含的特征点数量限制,其实这部分已</text><text id="ProcessOnText1025" fill="#000000" font-size="14" x="0.0" y="101.85" font-family="微软雅黑" font-weight="normal" font-style="normal" text-decoration="none" family="微软雅黑" text-anchor="start" size="14">经删除了很多响应值比较小的特征了</text></g></g><g id="ProcessOnG1026"><path id="ProcessOnPath1027" d="M198.91666666666669 177.91666666666666L198.91666666666669 200.08333333333331L199.0 200.08333333333331L199.0 207.0139320225002" stroke="#323232" stroke-width="2.0" stroke-dasharray="none" fill="none" marker-end="url(#ProcessOnMarker1028)"/></g><g id="ProcessOnG1030" transform="matrix(1.0,0.0,0.0,1.0,77.0,411.25)" opacity="1.0"><path id="ProcessOnPath1031" d="M0.0 4.0Q0.0 0.0 4.0 0.0L239.0 0.0Q243.0 0.0 243.0 4.0L243.0 52.0Q243.0 56.0 239.0 56.0L4.0 56.0Q0.0 56.0 0.0 52.0Z" stroke="#323232" stroke-width="2.0" stroke-dasharray="none" opacity="1.0" fill="#66cc00"/><g id="ProcessOnG1032" transform="matrix(1.0,0.0,0.0,1.0,10.0,10.5)"><text id="ProcessOnText1033" fill="#000000" font-size="14" x="0.0" y="14.350000000000001" font-family="微软雅黑" font-weight="normal" font-style="normal" text-decoration="none" family="微软雅黑" text-anchor="start" size="14">3.对新检测到的特征做双目匹配,详</text><text id="ProcessOnText1034" fill="#000000" font-size="14" x="0.0" y="31.85" font-family="微软雅黑" font-weight="normal" font-style="normal" text-decoration="none" family="微软雅黑" text-anchor="start" size="14">细方法见之间介绍</text></g></g><g id="ProcessOnG1035" transform="matrix(1.0,0.0,0.0,1.0,74.0,507.0)" opacity="1.0"><path id="ProcessOnPath1036" d="M0.0 4.0Q0.0 0.0 4.0 0.0L244.5 0.0Q248.5 0.0 248.5 4.0L248.5 91.25Q248.5 95.25 244.5 95.25L4.0 95.25Q0.0 95.25 0.0 91.25Z" stroke="#323232" stroke-width="2.0" stroke-dasharray="none" opacity="1.0" fill="#66cc00"/><g id="ProcessOnG1037" transform="matrix(1.0,0.0,0.0,1.0,10.0,12.625)"><text id="ProcessOnText1038" fill="#000000" font-size="14" x="0.0" y="14.350000000000001" font-family="微软雅黑" font-weight="normal" font-style="normal" text-decoration="none" family="微软雅黑" text-anchor="start" size="14">4.双目匹配之后会有一些outliers,这</text><text id="ProcessOnText1039" fill="#000000" font-size="14" x="0.0" y="31.85" font-family="微软雅黑" font-weight="normal" font-style="normal" text-decoration="none" family="微软雅黑" text-anchor="start" size="14">时候再次依据响应值对每个网格将特</text><text id="ProcessOnText1040" fill="#000000" font-size="14" x="0.0" y="49.35" font-family="微软雅黑" font-weight="normal" font-style="normal" text-decoration="none" family="微软雅黑" text-anchor="start" size="14">征点排序,但是这次包含的内容包括</text><text id="ProcessOnText1041" fill="#000000" font-size="14" x="0.0" y="66.85" font-family="微软雅黑" font-weight="normal" font-style="normal" text-decoration="none" family="微软雅黑" text-anchor="start" size="14">左右特征点位置等</text></g></g><g id="ProcessOnG1042"><path id="ProcessOnPath1043" d="M199.0 360.0L199.0 385.625L198.5 385.625L198.5 396.0139320225002" stroke="#323232" stroke-width="2.0" stroke-dasharray="none" fill="none" marker-end="url(#ProcessOnMarker1044)"/></g><g id="ProcessOnG1046"><path id="ProcessOnPath1047" d="M198.5 467.25L198.5 487.125L198.25 487.125L198.25 491.7639320225002" stroke="#323232" stroke-width="2.0" stroke-dasharray="none" fill="none" marker-end="url(#ProcessOnMarker1048)"/></g><g id="ProcessOnG1050" transform="matrix(1.0,0.0,0.0,1.0,59.0,648.0)" opacity="1.0"><path id="ProcessOnPath1051" d="M0.0 4.0Q0.0 0.0 4.0 0.0L275.0 0.0Q279.0 0.0 279.0 4.0L279.0 86.75Q279.0 90.75 275.0 90.75L4.0 90.75Q0.0 90.75 0.0 86.75Z" stroke="#323232" stroke-width="2.0" stroke-dasharray="none" opacity="1.0" fill="#66cc00"/><g id="ProcessOnG1052" transform="matrix(1.0,0.0,0.0,1.0,10.0,10.375)"><text id="ProcessOnText1053" fill="#000000" font-size="14" x="0.0" y="14.350000000000001" font-family="微软雅黑" font-weight="normal" font-style="normal" text-decoration="none" family="微软雅黑" text-anchor="start" size="14">5.对每个网格进行增加feature操作,增加</text><text id="ProcessOnText1054" fill="#000000" font-size="14" x="0.0" y="31.85" font-family="微软雅黑" font-weight="normal" font-style="normal" text-decoration="none" family="微软雅黑" text-anchor="start" size="14">之后个数为必须小于网格特征点数量最小</text><text id="ProcessOnText1055" fill="#000000" font-size="14" x="0.0" y="49.35" font-family="微软雅黑" font-weight="normal" font-style="normal" text-decoration="none" family="微软雅黑" text-anchor="start" size="14">值,并且肯定要小于本身该网格新增加的特</text><text id="ProcessOnText1056" fill="#000000" font-size="14" x="0.0" y="66.85" font-family="微软雅黑" font-weight="normal" font-style="normal" text-decoration="none" family="微软雅黑" text-anchor="start" size="14">征点数目</text></g></g><g id="ProcessOnG1057" transform="matrix(1.0,0.0,0.0,1.0,158.0,782.75)" opacity="1.0"><path id="ProcessOnPath1058" d="M0.0 4.0Q0.0 0.0 4.0 0.0L76.75 0.0Q80.75 0.0 80.75 4.0L80.75 41.0Q80.75 45.0 76.75 45.0L4.0 45.0Q0.0 45.0 0.0 41.0Z" stroke="#323232" stroke-width="2.0" stroke-dasharray="none" opacity="1.0" fill="#66cc00"/><g id="ProcessOnG1059" transform="matrix(1.0,0.0,0.0,1.0,10.0,13.75)"><text id="ProcessOnText1060" fill="#000000" font-size="14" x="29.375" y="14.350000000000001" font-family="微软雅黑" font-weight="normal" font-style="normal" text-decoration="none" family="微软雅黑" text-anchor="middle" size="14">结束</text></g></g><g id="ProcessOnG1061"><path id="ProcessOnPath1062" d="M198.25 602.25L198.25 625.125L198.5 625.125L198.5 632.7639320225002" stroke="#323232" stroke-width="2.0" stroke-dasharray="none" fill="none" marker-end="url(#ProcessOnMarker1063)"/></g><g id="ProcessOnG1065" transform="matrix(1.0,0.0,0.0,1.0,525.0,56.25)" opacity="1.0"><path id="ProcessOnPath1066" d="M0.0 4.0Q0.0 0.0 4.0 0.0L140.0 0.0Q144.0 0.0 144.0 4.0L144.0 42.0Q144.0 46.0 140.0 46.0L4.0 46.0Q0.0 46.0 0.0 42.0Z" stroke="#323232" stroke-width="2.0" stroke-dasharray="none" opacity="1.0" fill="#66cc00"/><g id="ProcessOnG1067" transform="matrix(1.0,0.0,0.0,1.0,10.0,5.5)"><text id="ProcessOnText1068" fill="#000000" font-size="14" x="61.0" y="14.350000000000001" font-family="微软雅黑" font-weight="normal" font-style="normal" text-decoration="none" family="微软雅黑" text-anchor="middle" size="14">pruneGridFeature</text><text id="ProcessOnText1069" fill="#000000" font-size="14" x="61.0" y="31.85" font-family="微软雅黑" font-weight="normal" font-style="normal" text-decoration="none" family="微软雅黑" text-anchor="middle" size="14">s()</text></g></g><g id="ProcessOnG1070" transform="matrix(1.0,0.0,0.0,1.0,478.0,162.33333333333331)" opacity="1.0"><path id="ProcessOnPath1071" d="M0.0 4.0Q0.0 0.0 4.0 0.0L233.83333333333331 0.0Q237.83333333333331 0.0 237.83333333333331 4.0L237.83333333333331 36.58333333333334Q237.83333333333331 40.58333333333334 233.83333333333331 40.58333333333334L4.0 40.58333333333334Q0.0 40.58333333333334 0.0 36.58333333333334Z" stroke="#323232" stroke-width="2.0" stroke-dasharray="none" opacity="1.0" fill="#66cc00"/><g id="ProcessOnG1072" transform="matrix(1.0,0.0,0.0,1.0,10.0,2.7916666666666714)"><text id="ProcessOnText1073" fill="#000000" font-size="14" x="0.0" y="14.350000000000001" font-family="微软雅黑" font-weight="normal" font-style="normal" text-decoration="none" family="微软雅黑" text-anchor="start" size="14">1.对每个网格的特征点进行数量检</text><text id="ProcessOnText1074" fill="#000000" font-size="14" x="0.0" y="31.85" font-family="微软雅黑" font-weight="normal" font-style="normal" text-decoration="none" family="微软雅黑" text-anchor="start" size="14">查</text></g></g><g id="ProcessOnG1075" transform="matrix(1.0,0.0,0.0,1.0,468.0,242.0)" opacity="1.0"><path id="ProcessOnPath1076" d="M0.0 50.0L129.0 0.0L258.0 50.0L129.0 100.0Z" stroke="#323232" stroke-width="2.0" stroke-dasharray="none" opacity="1.0" fill="#66cc00"/><g id="ProcessOnG1077" transform="matrix(1.0,0.0,0.0,1.0,10.0,42.375)"><text id="ProcessOnText1078" fill="#000000" font-size="13" x="118.0" y="13.325" font-family="微软雅黑" font-weight="normal" font-style="normal" text-decoration="none" family="微软雅黑" text-anchor="middle" size="13">数量大于网格特征点数量最大限制?</text></g></g><g id="ProcessOnG1079" transform="matrix(1.0,0.0,0.0,1.0,490.0,406.0)" opacity="1.0"><path id="ProcessOnPath1080" d="M0.0 4.0Q0.0 0.0 4.0 0.0L210.25 0.0Q214.25 0.0 214.25 4.0L214.25 81.0Q214.25 85.0 210.25 85.0L4.0 85.0Q0.0 85.0 0.0 81.0Z" stroke="#323232" stroke-width="2.0" stroke-dasharray="none" opacity="1.0" fill="#66cc00"/><g id="ProcessOnG1081" transform="matrix(1.0,0.0,0.0,1.0,10.0,25.0)"><text id="ProcessOnText1082" fill="#000000" font-size="14" x="0.0" y="14.350000000000001" font-family="微软雅黑" font-weight="normal" font-style="normal" text-decoration="none" family="微软雅黑" text-anchor="start" size="14">2.删除到数量为网格特征点数</text><text id="ProcessOnText1083" fill="#000000" font-size="14" x="0.0" y="31.85" font-family="微软雅黑" font-weight="normal" font-style="normal" text-decoration="none" family="微软雅黑" text-anchor="start" size="14">量最大数目</text></g></g><g id="ProcessOnG1084" transform="matrix(1.0,0.0,0.0,1.0,557.0,559.75)" opacity="1.0"><path id="ProcessOnPath1085" d="M0.0 4.0Q0.0 0.0 4.0 0.0L76.75 0.0Q80.75 0.0 80.75 4.0L80.75 41.0Q80.75 45.0 76.75 45.0L4.0 45.0Q0.0 45.0 0.0 41.0Z" stroke="#323232" stroke-width="2.0" stroke-dasharray="none" opacity="1.0" fill="#66cc00"/><g id="ProcessOnG1086" transform="matrix(1.0,0.0,0.0,1.0,10.0,13.75)"><text id="ProcessOnText1087" fill="#000000" font-size="14" x="29.375" y="14.350000000000001" font-family="微软雅黑" font-weight="normal" font-style="normal" text-decoration="none" family="微软雅黑" text-anchor="middle" size="14">结束</text></g></g><g id="ProcessOnG1088"><path id="ProcessOnPath1089" d="M596.9166666666666 202.91666666666666L596.9166666666666 222.45833333333331L597.0 222.45833333333331L597.0 226.7639320225002" stroke="#323232" stroke-width="2.0" stroke-dasharray="none" fill="none" marker-end="url(#ProcessOnMarker1090)"/></g><g id="ProcessOnG1092"><path id="ProcessOnPath1093" d="M597.125 491.0L597.125 525.375L597.375 525.375L597.375 544.5139320225002" stroke="#323232" stroke-width="2.0" stroke-dasharray="none" fill="none" marker-end="url(#ProcessOnMarker1094)"/></g><g id="ProcessOnG1096"><path id="ProcessOnPath1097" d="M198.5 738.75L198.5 760.75L198.375 760.75L198.375 767.5139320225002" stroke="#323232" stroke-width="2.0" stroke-dasharray="none" fill="none" marker-end="url(#ProcessOnMarker1098)"/></g><g id="ProcessOnG1100"><path id="ProcessOnPath1101" d="M597.0 342.0L597.0 374.0L597.125 374.0L597.125 390.7639320225002" stroke="#323232" stroke-width="2.0" stroke-dasharray="none" fill="none" marker-end="url(#ProcessOnMarker1102)"/></g><g id="ProcessOnG1104"><path id="ProcessOnPath1105" d="M726.0 292.0L771.0 292.0L771.0 140.2360679774998" stroke="#323232" stroke-width="2.0" stroke-dasharray="none" fill="none" marker-end="url(#ProcessOnMarker1106)"/></g><g id="ProcessOnG1108"><path id="ProcessOnPath1109" d="M597.0 102.25L597.0 132.29166666666666L596.9166666666666 132.29166666666666L596.9166666666666 147.0972653558335" stroke="#323232" stroke-width="2.0" stroke-dasharray="none" fill="none" marker-end="url(#ProcessOnMarker1110)"/></g><g id="ProcessOnG1112"><path id="ProcessOnPath1113" d="M772.0 124.0L686.5 124.0L686.5 124.0L616.2360679774998 124.0" stroke="#323232" stroke-width="2.0" stroke-dasharray="none" fill="none" marker-end="url(#ProcessOnMarker1114)"/></g><g id="ProcessOnG1116" transform="matrix(1.0,0.0,0.0,1.0,660.0,245.0)" opacity="1.0"><path id="ProcessOnPath1117" d="M0.0 0.0L160.0 0.0L160.0 40.0L0.0 40.0Z" stroke="none" stroke-width="0.0" stroke-dasharray="none" opacity="1.0" fill="none"/><g id="ProcessOnG1118" transform="matrix(1.0,0.0,0.0,1.0,0.0,11.875)"><text id="ProcessOnText1119" fill="#000000" font-size="13" x="79.0" y="13.325" font-family="微软雅黑" font-weight="normal" font-style="normal" text-decoration="none" family="微软雅黑" text-anchor="middle" size="13">否</text></g></g><g id="ProcessOnG1120" transform="matrix(1.0,0.0,0.0,1.0,506.0,352.0)" opacity="1.0"><path id="ProcessOnPath1121" d="M0.0 0.0L160.0 0.0L160.0 40.0L0.0 40.0Z" stroke="none" stroke-width="0.0" stroke-dasharray="none" opacity="1.0" fill="none"/><g id="ProcessOnG1122" transform="matrix(1.0,0.0,0.0,1.0,0.0,11.875)"><text id="ProcessOnText1123" fill="#000000" font-size="13" x="79.0" y="13.325" font-family="微软雅黑" font-weight="normal" font-style="normal" text-decoration="none" family="微软雅黑" text-anchor="middle" size="13">是</text></g></g></g></g></svg>