<svg xmlns:xlink="http://www.w3.org/1999/xlink" width="75ex" height="31.509ex" style="font-size: 15px; vertical-align: -15.171ex; max-width: 450;" viewBox="0 -7034.4 32291.5 13566.5" role="img" focusable="false" xmlns="http://www.w3.org/2000/svg">
<defs>
<path stroke-width="1" id="E1-MJMAIN-28" d="M94 250Q94 319 104 381T127 488T164 576T202 643T244 695T277 729T302 750H315H319Q333 750 333 741Q333 738 316 720T275 667T226 581T184 443T167 250T184 58T225 -81T274 -167T316 -220T333 -241Q333 -250 318 -250H315H302L274 -226Q180 -141 137 -14T94 250Z"></path>
<path stroke-width="1" id="E1-MJMAIN-39" d="M352 287Q304 211 232 211Q154 211 104 270T44 396Q42 412 42 436V444Q42 537 111 606Q171 666 243 666Q245 666 249 666T257 665H261Q273 665 286 663T323 651T370 619T413 560Q456 472 456 334Q456 194 396 97Q361 41 312 10T208 -22Q147 -22 108 7T68 93T121 149Q143 149 158 135T173 96Q173 78 164 65T148 49T135 44L131 43Q131 41 138 37T164 27T206 22H212Q272 22 313 86Q352 142 352 280V287ZM244 248Q292 248 321 297T351 430Q351 508 343 542Q341 552 337 562T323 588T293 615T246 625Q208 625 181 598Q160 576 154 546T147 441Q147 358 152 329T172 282Q197 248 244 248Z"></path>
<path stroke-width="1" id="E1-MJMAIN-29" d="M60 749L64 750Q69 750 74 750H86L114 726Q208 641 251 514T294 250Q294 182 284 119T261 12T224 -76T186 -143T145 -194T113 -227T90 -246Q87 -249 86 -250H74Q66 -250 63 -250T58 -247T55 -238Q56 -237 66 -225Q221 -64 221 250T66 725Q56 737 55 738Q55 746 60 749Z"></path>
<path stroke-width="1" id="E1-MJMAINB-41" d="M296 0Q278 3 164 3Q58 3 49 0H40V62H92Q144 62 144 64Q388 682 397 689Q403 698 434 698Q463 698 471 689Q475 686 538 530T663 218L724 64Q724 62 776 62H828V0H817Q796 3 658 3Q509 3 485 0H472V62H517Q561 62 561 63L517 175H262L240 120Q218 65 217 64Q217 62 261 62H306V0H296ZM390 237L492 238L440 365Q390 491 388 491Q287 239 287 237H390Z"></path>
<path stroke-width="1" id="E1-MJMAINB-78" d="M227 0Q212 3 121 3Q40 3 28 0H21V62H117L245 213L109 382H26V444H34Q49 441 143 441Q247 441 265 444H274V382H246L281 339Q315 297 316 297Q320 297 354 341L389 382H352V444H360Q375 441 466 441Q547 441 559 444H566V382H471L355 246L504 63L545 62H586V0H578Q563 3 469 3Q365 3 347 0H338V62H366Q366 63 326 112T285 163L198 63L217 62H235V0H227Z"></path>
<path stroke-width="1" id="E1-MJMAINB-20D7" d="M-169 694Q-169 707 -160 715T-142 723Q-127 723 -119 716T-107 698T-90 673T-53 648Q-33 637 -33 619Q-33 602 -45 595T-87 573T-144 532Q-165 513 -176 513Q-189 513 -197 522T-206 543Q-206 556 -188 574L-175 588H-347L-519 589Q-542 597 -542 618Q-542 623 -541 627T-537 635T-532 640T-527 644T-522 648L-519 649H-149Q-169 676 -169 694Z"></path>
<path stroke-width="1" id="E1-MJMAIN-3D" d="M56 347Q56 360 70 367H707Q722 359 722 347Q722 336 708 328L390 327H72Q56 332 56 347ZM56 153Q56 168 72 173H708Q722 163 722 153Q722 140 707 133H70Q56 140 56 153Z"></path>
<path stroke-width="1" id="E1-MJMAIN-5B" d="M118 -250V750H255V710H158V-210H255V-250H118Z"></path>
<path stroke-width="1" id="E1-MJMATHI-3BC" d="M58 -216Q44 -216 34 -208T23 -186Q23 -176 96 116T173 414Q186 442 219 442Q231 441 239 435T249 423T251 413Q251 401 220 279T187 142Q185 131 185 107V99Q185 26 252 26Q261 26 270 27T287 31T302 38T315 45T327 55T338 65T348 77T356 88T365 100L372 110L408 253Q444 395 448 404Q461 431 491 431Q504 431 512 424T523 412T525 402L449 84Q448 79 448 68Q448 43 455 35T476 26Q485 27 496 35Q517 55 537 131Q543 151 547 152Q549 153 557 153H561Q580 153 580 144Q580 138 575 117T555 63T523 13Q510 0 491 -8Q483 -10 467 -10Q446 -10 429 -4T402 11T385 29T376 44T374 51L368 45Q362 39 350 30T324 12T288 -4T246 -11Q199 -11 153 12L129 -85Q108 -167 104 -180T92 -202Q76 -216 58 -216Z"></path>
<path stroke-width="1" id="E1-MJMAIN-31" d="M213 578L200 573Q186 568 160 563T102 556H83V602H102Q149 604 189 617T245 641T273 663Q275 666 285 666Q294 666 302 660V361L303 61Q310 54 315 52T339 48T401 46H427V0H416Q395 3 257 3Q121 3 100 0H88V46H114Q136 46 152 46T177 47T193 50T201 52T207 57T213 61V578Z"></path>
<path stroke-width="1" id="E1-MJMAIN-2C" d="M78 35T78 60T94 103T137 121Q165 121 187 96T210 8Q210 -27 201 -60T180 -117T154 -158T130 -185T117 -194Q113 -194 104 -185T95 -172Q95 -168 106 -156T131 -126T157 -76T173 -3V9L172 8Q170 7 167 6T161 3T152 1T140 0Q113 0 96 17Z"></path>
<path stroke-width="1" id="E1-MJMAIN-32" d="M109 429Q82 429 66 447T50 491Q50 562 103 614T235 666Q326 666 387 610T449 465Q449 422 429 383T381 315T301 241Q265 210 201 149L142 93L218 92Q375 92 385 97Q392 99 409 186V189H449V186Q448 183 436 95T421 3V0H50V19V31Q50 38 56 46T86 81Q115 113 136 137Q145 147 170 174T204 211T233 244T261 278T284 308T305 340T320 369T333 401T340 431T343 464Q343 527 309 573T212 619Q179 619 154 602T119 569T109 550Q109 549 114 549Q132 549 151 535T170 489Q170 464 154 447T109 429Z"></path>
<path stroke-width="1" id="E1-MJMAIN-5D" d="M22 710V750H159V-250H22V-210H119V710H22Z"></path>
<path stroke-width="1" id="E1-MJSZ4-E152" d="M-24 327L-18 333H-1Q11 333 15 333T22 329T27 322T35 308T54 284Q115 203 225 162T441 120Q454 120 457 117T460 95V60V28Q460 8 457 4T442 0Q355 0 260 36Q75 118 -16 278L-24 292V327Z"></path>
<path stroke-width="1" id="E1-MJSZ4-E153" d="M-10 60V95Q-10 113 -7 116T9 120Q151 120 250 171T396 284Q404 293 412 305T424 324T431 331Q433 333 451 333H468L474 327V292L466 278Q375 118 190 36Q95 0 8 0Q-5 0 -7 3T-10 24V60Z"></path>
<path stroke-width="1" id="E1-MJSZ4-E151" d="M-10 60Q-10 104 -10 111T-5 118Q-1 120 10 120Q96 120 190 84Q375 2 466 -158L474 -172V-207L468 -213H451H447Q437 -213 434 -213T428 -209T423 -202T414 -187T396 -163Q331 -82 224 -41T9 0Q-4 0 -7 3T-10 25V60Z"></path>
<path stroke-width="1" id="E1-MJSZ4-E150" d="M-18 -213L-24 -207V-172L-16 -158Q75 2 260 84Q334 113 415 119Q418 119 427 119T440 120Q454 120 457 117T460 98V60V25Q460 7 457 4T441 0Q308 0 193 -55T25 -205Q21 -211 18 -212T-1 -213H-18Z"></path>
<path stroke-width="1" id="E1-MJSZ4-E154" d="M-10 0V120H410V0H-10Z"></path>
<path stroke-width="1" id="E1-MJMAIN-22C5" d="M78 250Q78 274 95 292T138 310Q162 310 180 294T199 251Q199 226 182 208T139 190T96 207T78 250Z"></path>
<path stroke-width="1" id="E1-MJMATHI-3C3" d="M184 -11Q116 -11 74 34T31 147Q31 247 104 333T274 430Q275 431 414 431H552Q553 430 555 429T559 427T562 425T565 422T567 420T569 416T570 412T571 407T572 401Q572 357 507 357Q500 357 490 357T476 358H416L421 348Q439 310 439 263Q439 153 359 71T184 -11ZM361 278Q361 358 276 358Q152 358 115 184Q114 180 114 178Q106 141 106 117Q106 67 131 47T188 26Q242 26 287 73Q316 103 334 153T356 233T361 278Z"></path>
<path stroke-width="1" id="E1-MJMAIN-30" d="M96 585Q152 666 249 666Q297 666 345 640T423 548Q460 465 460 320Q460 165 417 83Q397 41 362 16T301 -15T250 -22Q224 -22 198 -16T137 16T82 83Q39 165 39 320Q39 494 96 585ZM321 597Q291 629 250 629Q208 629 178 597Q153 571 145 525T137 333Q137 175 145 125T181 46Q209 16 250 16Q290 16 318 46Q347 76 354 130T362 333Q362 478 354 524T321 597Z"></path>
<path stroke-width="1" id="E1-MJSZ3-5B" d="M247 -949V1450H516V1388H309V-887H516V-949H247Z"></path>
<path stroke-width="1" id="E1-MJSZ3-5D" d="M11 1388V1450H280V-949H11V-887H218V1388H11Z"></path>
<path stroke-width="1" id="E1-MJMATHI-3C5" d="M413 384Q413 406 432 424T473 443Q492 443 507 425T523 367Q523 334 508 270T468 153Q424 63 373 27T282 -10H268Q220 -10 186 2T135 36T111 78T104 121Q104 170 138 262T173 379Q173 380 173 381Q173 390 173 393T169 400T158 404H154Q131 404 112 385T82 344T65 302T57 280Q55 278 41 278H27Q21 284 21 287Q21 299 34 333T82 404T161 441Q200 441 225 419T250 355Q248 336 247 334Q247 331 232 291T201 199T185 118Q185 68 211 47T275 26Q317 26 355 57T416 132T452 216T465 277Q465 301 457 318T439 343T421 361T413 384Z"></path>
<path stroke-width="1" id="E1-MJMAIN-22A4" d="M55 642T55 648T59 659T66 666T71 668H708Q723 660 723 648T708 628H409V15Q402 2 391 0Q387 0 384 1T379 3T375 6T373 9T371 13T369 16V628H71Q70 628 67 630T59 637Z"></path>
<path stroke-width="1" id="E1-MJMAINB-31" d="M481 0L294 3Q136 3 109 0H96V62H227V304Q227 546 225 546Q169 529 97 529H80V591H97Q231 591 308 647L319 655H333Q355 655 359 644Q361 640 361 351V62H494V0H481Z"></path>
<path stroke-width="1" id="E1-MJMAINB-32" d="M175 580Q175 578 185 572T205 551T215 510Q215 467 191 449T137 430Q107 430 83 448T58 511Q58 558 91 592T168 640T259 654Q328 654 383 637Q451 610 484 563T517 459Q517 401 482 360T368 262Q340 243 265 184L210 140H274Q416 140 429 145Q439 148 447 186T455 237H517V233Q516 230 501 119Q489 9 486 4V0H57V25Q57 51 58 54Q60 57 109 106T215 214T288 291Q364 377 364 458Q364 515 328 553T231 592Q214 592 201 589T181 584T175 580Z"></path>
<path stroke-width="1" id="E1-MJMAINB-56" d="M592 686H604Q615 685 631 685T666 684T700 684T724 683Q829 683 835 686H843V624H744L611 315Q584 254 546 165Q492 40 482 19T461 -6L460 -7H409Q398 -4 391 9Q385 20 257 315L124 624H25V686H36Q57 683 190 683Q340 683 364 686H377V624H289L384 403L480 185L492 212Q504 240 529 298T575 405L670 624H582V686H592Z"></path>
<path stroke-width="1" id="E1-MJMATHI-3BE" d="M268 632Q268 704 296 704Q314 704 314 687Q314 682 311 664T308 635T309 620V616H315Q342 619 360 619Q443 619 443 586Q439 548 358 546H344Q326 546 317 549T290 566Q257 550 226 505T195 405Q195 381 201 364T211 342T218 337Q266 347 298 347Q375 347 375 314Q374 297 359 288T327 277T280 275Q234 275 208 283L195 286Q149 260 119 214T88 130Q88 116 90 108Q101 79 129 63T229 20Q238 17 243 15Q337 -21 354 -33Q383 -53 383 -94Q383 -137 351 -171T273 -205Q240 -205 202 -190T158 -167Q156 -163 156 -159Q156 -151 161 -146T176 -140Q182 -140 189 -143Q232 -168 274 -168Q286 -168 292 -165Q313 -151 313 -129Q313 -112 301 -104T232 -75Q214 -68 204 -64Q198 -62 171 -52T136 -38T107 -24T78 -8T56 12T36 37T26 66T21 103Q21 149 55 206T145 301L154 307L148 313Q141 319 136 323T124 338T111 358T103 382T99 413Q99 471 143 524T259 602L271 607Q268 618 268 632Z"></path>
<path stroke-width="1" id="E1-MJMATHI-78" d="M52 289Q59 331 106 386T222 442Q257 442 286 424T329 379Q371 442 430 442Q467 442 494 420T522 361Q522 332 508 314T481 292T458 288Q439 288 427 299T415 328Q415 374 465 391Q454 404 425 404Q412 404 406 402Q368 386 350 336Q290 115 290 78Q290 50 306 38T341 26Q378 26 414 59T463 140Q466 150 469 151T485 153H489Q504 153 504 145Q504 144 502 134Q486 77 440 33T333 -11Q263 -11 227 52Q186 -10 133 -10H127Q78 -10 57 16T35 71Q35 103 54 123T99 143Q142 143 142 101Q142 81 130 66T107 46T94 41L91 40Q91 39 97 36T113 29T132 26Q168 26 194 71Q203 87 217 139T245 247T261 313Q266 340 266 352Q266 380 251 392T217 404Q177 404 142 372T93 290Q91 281 88 280T72 278H58Q52 284 52 289Z"></path>
<path stroke-width="1" id="E1-MJMAINB-49" d="M397 0Q370 3 218 3Q65 3 38 0H25V62H139V624H25V686H38Q65 683 218 683Q370 683 397 686H410V624H296V62H410V0H397Z"></path>
</defs>
<g stroke="currentColor" fill="currentColor" stroke-width="0" transform="matrix(1 0 0 -1 0 0)">
<g transform="translate(31012,0)">
<g id="mjx-eqn-9" transform="translate(0,5322)">
 <use xlink:href="#E1-MJMAIN-28"></use>
 <use xlink:href="#E1-MJMAIN-39" x="389" y="0"></use>
 <use xlink:href="#E1-MJMAIN-29" x="890" y="0"></use>
</g>
</g>
<g transform="translate(4564,0)">
<g transform="translate(-11,0)">
<g transform="translate(0,5322)">
 <use xlink:href="#E1-MJMAINB-41" x="0" y="0"></use>
<g transform="translate(869,0)">
 <use xlink:href="#E1-MJMAINB-78" x="0" y="0"></use>
 <use xlink:href="#E1-MJMAINB-20D7" x="574" y="40"></use>
</g>
</g>
</g>
<g transform="translate(1466,0)">
<g transform="translate(0,5322)">
 <use xlink:href="#E1-MJMAIN-3D" x="277" y="0"></use>
<g transform="translate(1334,0)">
 <use xlink:href="#E1-MJMAIN-5B" x="0" y="0"></use>
<g transform="translate(278,0)">
 <use xlink:href="#E1-MJMATHI-3BC" x="0" y="0"></use>
 <use transform="scale(0.707)" xlink:href="#E1-MJMAIN-31" x="853" y="-213"></use>
</g>
 <use xlink:href="#E1-MJMAIN-2C" x="1335" y="0"></use>
<g transform="translate(1781,0)">
 <use xlink:href="#E1-MJMATHI-3BC" x="0" y="0"></use>
 <use transform="scale(0.707)" xlink:href="#E1-MJMAIN-32" x="853" y="-213"></use>
</g>
 <use xlink:href="#E1-MJMAIN-5D" x="2838" y="0"></use>
<g transform="translate(12,-765)">
 <use xlink:href="#E1-MJSZ4-E152" x="23" y="0"></use>
<g transform="translate(498.11406579646047,0) scale(1.4856911364695244,1)">
 <use xlink:href="#E1-MJSZ4-E154"></use>
</g>
<g transform="translate(1107,0)">
 <use xlink:href="#E1-MJSZ4-E151"></use>
 <use xlink:href="#E1-MJSZ4-E150" x="450" y="0"></use>
</g>
<g transform="translate(2023.1043431136607,0) scale(1.4856911364695244,1)">
 <use xlink:href="#E1-MJSZ4-E154"></use>
</g>
 <use xlink:href="#E1-MJSZ4-E153" x="2642" y="0"></use>
</g>
<g transform="translate(746,-1755)">
<text font-family="monospace" stroke="none" transform="scale(50.74127551116547) matrix(1 0 0 -1 0 0)">旋</text>
<g transform="translate(811,0)">
<text font-family="monospace" stroke="none" transform="scale(50.74127551116547) matrix(1 0 0 -1 0 0)">转</text>
</g>
</g>
<g transform="translate(3116,0)">
 <use xlink:href="#E1-MJMAIN-22C5" x="0" y="0"></use>
<g transform="translate(278,0)">
 <use xlink:href="#E1-MJSZ3-5B"></use>
<g transform="translate(695,0)">
<g transform="translate(-11,0)">
<g transform="translate(0,650)">
 <use xlink:href="#E1-MJMATHI-3C3" x="0" y="0"></use>
 <use transform="scale(0.707)" xlink:href="#E1-MJMAIN-31" x="808" y="-213"></use>
</g>
 <use xlink:href="#E1-MJMAIN-30" x="262" y="-750"></use>
</g>
<g transform="translate(2014,0)">
 <use xlink:href="#E1-MJMAIN-30" x="262" y="650"></use>
<g transform="translate(0,-750)">
 <use xlink:href="#E1-MJMATHI-3C3" x="0" y="0"></use>
 <use transform="scale(0.707)" xlink:href="#E1-MJMAIN-32" x="808" y="-213"></use>
</g>
</g>
</g>
 <use xlink:href="#E1-MJSZ3-5D" x="3902" y="-1"></use>
<g transform="translate(12,-1465)">
 <use xlink:href="#E1-MJSZ4-E152" x="23" y="0"></use>
<g transform="translate(512.979096731411,0) scale(3.050431234885364,1)">
 <use xlink:href="#E1-MJSZ4-E154"></use>
</g>
<g transform="translate(1765,0)">
 <use xlink:href="#E1-MJSZ4-E151"></use>
 <use xlink:href="#E1-MJSZ4-E150" x="450" y="0"></use>
</g>
<g transform="translate(2695.160215383264,0) scale(3.050431234885364,1)">
 <use xlink:href="#E1-MJSZ4-E154"></use>
</g>
 <use xlink:href="#E1-MJSZ4-E153" x="3956" y="0"></use>
</g>
<g transform="translate(1403,-2455)">
<text font-family="monospace" stroke="none" transform="scale(50.74127551116547) matrix(1 0 0 -1 0 0)">拉</text>
<g transform="translate(811,0)">
<text font-family="monospace" stroke="none" transform="scale(50.74127551116547) matrix(1 0 0 -1 0 0)">伸</text>
</g>
</g>
</g>
 <use xlink:href="#E1-MJMAIN-22C5" x="4932" y="0"></use>
<g transform="translate(5432,0)">
 <use xlink:href="#E1-MJSZ3-5B"></use>
<g transform="translate(695,0)">
<g transform="translate(-11,0)">
<g transform="translate(0,749)">
 <use xlink:href="#E1-MJMATHI-3C5" x="0" y="0"></use>
 <use transform="scale(0.707)" xlink:href="#E1-MJMAIN-22A4" x="764" y="488"></use>
 <use transform="scale(0.707)" xlink:href="#E1-MJMAINB-31" x="764" y="-424"></use>
</g>
<g transform="translate(0,-769)">
 <use xlink:href="#E1-MJMATHI-3C5" x="0" y="0"></use>
 <use transform="scale(0.707)" xlink:href="#E1-MJMAIN-22A4" x="764" y="488"></use>
 <use transform="scale(0.707)" xlink:href="#E1-MJMAINB-32" x="764" y="-423"></use>
</g>
</g>
</g>
 <use xlink:href="#E1-MJSZ3-5D" x="2043" y="-1"></use>
<g transform="translate(12,-1582)">
 <use xlink:href="#E1-MJSZ4-E152" x="23" y="0"></use>
<g transform="translate(491.9452908281573,0) scale(0.8363464029639274,1)">
 <use xlink:href="#E1-MJSZ4-E154"></use>
</g>
<g transform="translate(835,0)">
 <use xlink:href="#E1-MJSZ4-E151"></use>
 <use xlink:href="#E1-MJSZ4-E150" x="450" y="0"></use>
</g>
<g transform="translate(1744.2107800730068,0) scale(0.8363464029639274,1)">
 <use xlink:href="#E1-MJSZ4-E154"></use>
</g>
 <use xlink:href="#E1-MJSZ4-E153" x="2097" y="0"></use>
</g>
<g transform="translate(473,-2572)">
<text font-family="monospace" stroke="none" transform="scale(50.74127551116547) matrix(1 0 0 -1 0 0)">旋</text>
<g transform="translate(811,0)">
<text font-family="monospace" stroke="none" transform="scale(50.74127551116547) matrix(1 0 0 -1 0 0)">转</text>
</g>
</g>
 <use xlink:href="#E1-MJMAIN-22C5" x="2793" y="0"></use>
<g transform="translate(3294,0)">
<g transform="translate(788,0)">
 <use xlink:href="#E1-MJMAIN-5B" x="0" y="0"></use>
<g transform="translate(278,0)">
 <use xlink:href="#E1-MJMATHI-3C5" x="0" y="0"></use>
 <use transform="scale(0.707)" xlink:href="#E1-MJMAINB-31" x="764" y="-213"></use>
</g>
 <use xlink:href="#E1-MJMAIN-2C" x="1325" y="0"></use>
<g transform="translate(1771,0)">
 <use xlink:href="#E1-MJMATHI-3C5" x="0" y="0"></use>
 <use transform="scale(0.707)" xlink:href="#E1-MJMAINB-32" x="764" y="-213"></use>
</g>
 <use xlink:href="#E1-MJMAIN-5D" x="2818" y="0"></use>
<g transform="translate(12,-765)">
 <use xlink:href="#E1-MJSZ4-E152" x="23" y="0"></use>
<g transform="translate(497.8886219431162,0) scale(1.4619602045385516,1)">
 <use xlink:href="#E1-MJSZ4-E154"></use>
</g>
<g transform="translate(1098,0)">
 <use xlink:href="#E1-MJSZ4-E151"></use>
 <use xlink:href="#E1-MJSZ4-E150" x="450" y="0"></use>
</g>
<g transform="translate(2012.911907849308,0) scale(1.4619602045385516,1)">
 <use xlink:href="#E1-MJSZ4-E154"></use>
</g>
 <use xlink:href="#E1-MJSZ4-E153" x="2622" y="0"></use>
</g>
</g>
<g transform="translate(0,-1755)">
<text font-family="monospace" stroke="none" transform="scale(50.74127551116547) matrix(1 0 0 -1 0 0)">单</text>
<g transform="translate(811,0)">
<text font-family="monospace" stroke="none" transform="scale(50.74127551116547) matrix(1 0 0 -1 0 0)">位</text>
</g>
<g transform="translate(1623,0)">
<text font-family="monospace" stroke="none" transform="scale(50.74127551116547) matrix(1 0 0 -1 0 0)">正</text>
</g>
<g transform="translate(2435,0)">
<text font-family="monospace" stroke="none" transform="scale(50.74127551116547) matrix(1 0 0 -1 0 0)">交</text>
</g>
<g transform="translate(3247,0)">
<text font-family="monospace" stroke="none" transform="scale(50.74127551116547) matrix(1 0 0 -1 0 0)">基</text>
</g>
 <use transform="scale(0.707)" xlink:href="#E1-MJMAINB-56" x="5740" y="0"></use>
</g>
 <use xlink:href="#E1-MJMAIN-22C5" x="4896" y="0"></use>
<g transform="translate(5397,0)">
<g transform="translate(591,0)">
 <use xlink:href="#E1-MJSZ3-5B"></use>
<g transform="translate(695,0)">
<g transform="translate(-11,0)">
<g transform="translate(0,656)">
 <use xlink:href="#E1-MJMATHI-3BE" x="0" y="0"></use>
 <use transform="scale(0.707)" xlink:href="#E1-MJMAIN-31" x="620" y="-213"></use>
</g>
<g transform="translate(0,-750)">
 <use xlink:href="#E1-MJMATHI-3BE" x="0" y="0"></use>
 <use transform="scale(0.707)" xlink:href="#E1-MJMAIN-32" x="620" y="-213"></use>
</g>
</g>
</g>
 <use xlink:href="#E1-MJSZ3-5D" x="1744" y="-1"></use>
<g transform="translate(12,-1470)">
 <use xlink:href="#E1-MJSZ4-E152" x="23" y="0"></use>
<g transform="translate(488.5685420077839,0) scale(0.48089915871409383,1)">
 <use xlink:href="#E1-MJSZ4-E154"></use>
</g>
<g transform="translate(685,0)">
 <use xlink:href="#E1-MJSZ4-E151"></use>
 <use xlink:href="#E1-MJSZ4-E150" x="450" y="0"></use>
</g>
<g transform="translate(1591.5461886677033,0) scale(0.48089915871409383,1)">
 <use xlink:href="#E1-MJSZ4-E154"></use>
</g>
 <use xlink:href="#E1-MJSZ4-E153" x="1798" y="0"></use>
</g>
</g>
<g transform="translate(0,-2460)">
 <use transform="scale(0.707)" xlink:href="#E1-MJMATHI-78" x="0" y="0"></use>
<g transform="translate(404,0)">
<text font-family="monospace" stroke="none" transform="scale(50.74127551116547) matrix(1 0 0 -1 0 0)">在</text>
</g>
 <use transform="scale(0.707)" xlink:href="#E1-MJMAINB-56" x="1720" y="0"></use>
<g transform="translate(1831,0)">
<text font-family="monospace" stroke="none" transform="scale(50.74127551116547) matrix(1 0 0 -1 0 0)">坐</text>
</g>
<g transform="translate(2643,0)">
<text font-family="monospace" stroke="none" transform="scale(50.74127551116547) matrix(1 0 0 -1 0 0)">标</text>
</g>
</g>
</g>
<g transform="translate(12,-3379)">
 <use xlink:href="#E1-MJSZ4-E152" x="23" y="0"></use>
<g transform="translate(562.9778545578216,0) scale(8.313458374507537,1)">
 <use xlink:href="#E1-MJSZ4-E154"></use>
</g>
<g transform="translate(3975,0)">
 <use xlink:href="#E1-MJSZ4-E151"></use>
 <use xlink:href="#E1-MJSZ4-E150" x="450" y="0"></use>
</g>
<g transform="translate(4955.630371850987,0) scale(8.313458374507537,1)">
 <use xlink:href="#E1-MJSZ4-E154"></use>
</g>
 <use xlink:href="#E1-MJSZ4-E153" x="8377" y="0"></use>
</g>
<g transform="translate(668,-4368)">
 <use transform="scale(0.707)" xlink:href="#E1-MJMATHI-78" x="0" y="0"></use>
<g transform="translate(404,0)">
<text font-family="monospace" stroke="none" transform="scale(50.74127551116547) matrix(1 0 0 -1 0 0)">用</text>
</g>
<g transform="translate(1216,0)">
<text font-family="monospace" stroke="none" transform="scale(50.74127551116547) matrix(1 0 0 -1 0 0)">单</text>
</g>
<g transform="translate(2028,0)">
<text font-family="monospace" stroke="none" transform="scale(50.74127551116547) matrix(1 0 0 -1 0 0)">位</text>
</g>
<g transform="translate(2840,0)">
<text font-family="monospace" stroke="none" transform="scale(50.74127551116547) matrix(1 0 0 -1 0 0)">正</text>
</g>
<g transform="translate(3652,0)">
<text font-family="monospace" stroke="none" transform="scale(50.74127551116547) matrix(1 0 0 -1 0 0)">交</text>
</g>
<g transform="translate(4464,0)">
<text font-family="monospace" stroke="none" transform="scale(50.74127551116547) matrix(1 0 0 -1 0 0)">基</text>
</g>
 <use transform="scale(0.707)" xlink:href="#E1-MJMAINB-56" x="7461" y="0"></use>
<g transform="translate(5890,0)">
<text font-family="monospace" stroke="none" transform="scale(50.74127551116547) matrix(1 0 0 -1 0 0)">表</text>
</g>
<g transform="translate(6702,0)">
<text font-family="monospace" stroke="none" transform="scale(50.74127551116547) matrix(1 0 0 -1 0 0)">示</text>
</g>
</g>
</g>
<g transform="translate(12,-5287)">
 <use xlink:href="#E1-MJSZ4-E152" x="23" y="0"></use>
<g transform="translate(600.2368027933863,0) scale(12.235452925619612,1)">
 <use xlink:href="#E1-MJSZ4-E154"></use>
</g>
<g transform="translate(5622,0)">
 <use xlink:href="#E1-MJSZ4-E151"></use>
 <use xlink:href="#E1-MJSZ4-E150" x="450" y="0"></use>
</g>
<g transform="translate(6640.127031553623,0) scale(12.235452925619612,1)">
 <use xlink:href="#E1-MJSZ4-E154"></use>
</g>
 <use xlink:href="#E1-MJSZ4-E153" x="11672" y="0"></use>
</g>
<g transform="translate(1608,-6276)">
<text font-family="monospace" stroke="none" transform="scale(50.74127551116547) matrix(1 0 0 -1 0 0)">对</text>
<g transform="translate(811,0)">
<text font-family="monospace" stroke="none" transform="scale(50.74127551116547) matrix(1 0 0 -1 0 0)">单</text>
</g>
<g transform="translate(1623,0)">
<text font-family="monospace" stroke="none" transform="scale(50.74127551116547) matrix(1 0 0 -1 0 0)">位</text>
</g>
<g transform="translate(2435,0)">
<text font-family="monospace" stroke="none" transform="scale(50.74127551116547) matrix(1 0 0 -1 0 0)">正</text>
</g>
<g transform="translate(3247,0)">
<text font-family="monospace" stroke="none" transform="scale(50.74127551116547) matrix(1 0 0 -1 0 0)">交</text>
</g>
<g transform="translate(4059,0)">
<text font-family="monospace" stroke="none" transform="scale(50.74127551116547) matrix(1 0 0 -1 0 0)">基</text>
</g>
 <use transform="scale(0.707)" xlink:href="#E1-MJMAINB-56" x="6888" y="0"></use>
<g transform="translate(5485,0)">
<text font-family="monospace" stroke="none" transform="scale(50.74127551116547) matrix(1 0 0 -1 0 0)">进</text>
</g>
<g transform="translate(6297,0)">
<text font-family="monospace" stroke="none" transform="scale(50.74127551116547) matrix(1 0 0 -1 0 0)">行</text>
</g>
<g transform="translate(7109,0)">
<text font-family="monospace" stroke="none" transform="scale(50.74127551116547) matrix(1 0 0 -1 0 0)">旋</text>
</g>
<g transform="translate(7921,0)">
<text font-family="monospace" stroke="none" transform="scale(50.74127551116547) matrix(1 0 0 -1 0 0)">转</text>
</g>
 <use transform="scale(0.707)" xlink:href="#E1-MJMAIN-2C" x="12350" y="0"></use>
<g transform="translate(0,-1218)">
<text font-family="monospace" stroke="none" transform="scale(50.74127551116547) matrix(1 0 0 -1 0 0)">使</text>
<g transform="translate(811,0)">
<text font-family="monospace" stroke="none" transform="scale(50.74127551116547) matrix(1 0 0 -1 0 0)">之</text>
</g>
<g transform="translate(1623,0)">
<text font-family="monospace" stroke="none" transform="scale(50.74127551116547) matrix(1 0 0 -1 0 0)">变</text>
</g>
<g transform="translate(2435,0)">
<text font-family="monospace" stroke="none" transform="scale(50.74127551116547) matrix(1 0 0 -1 0 0)">为</text>
</g>
<g transform="translate(3247,0)">
<text font-family="monospace" stroke="none" transform="scale(50.74127551116547) matrix(1 0 0 -1 0 0)">标</text>
</g>
<g transform="translate(4059,0)">
<text font-family="monospace" stroke="none" transform="scale(50.74127551116547) matrix(1 0 0 -1 0 0)">准</text>
</g>
<g transform="translate(4871,0)">
<text font-family="monospace" stroke="none" transform="scale(50.74127551116547) matrix(1 0 0 -1 0 0)">正</text>
</g>
<g transform="translate(5683,0)">
<text font-family="monospace" stroke="none" transform="scale(50.74127551116547) matrix(1 0 0 -1 0 0)">交</text>
</g>
<g transform="translate(6494,0)">
<text font-family="monospace" stroke="none" transform="scale(50.74127551116547) matrix(1 0 0 -1 0 0)">基</text>
</g>
 <use transform="scale(0.707)" xlink:href="#E1-MJMAINB-49" x="10333" y="0"></use>
</g>
</g>
</g>
<g transform="translate(12,-8412)">
 <use xlink:href="#E1-MJSZ4-E152" x="23" y="0"></use>
<g transform="translate(661.679259313157,0) scale(18.703079927700742,1)">
 <use xlink:href="#E1-MJSZ4-E154"></use>
</g>
<g transform="translate(8339,0)">
 <use xlink:href="#E1-MJSZ4-E151"></use>
 <use xlink:href="#E1-MJSZ4-E150" x="450" y="0"></use>
</g>
<g transform="translate(9417.97282894747,0) scale(18.703079927700742,1)">
 <use xlink:href="#E1-MJSZ4-E154"></use>
</g>
 <use xlink:href="#E1-MJSZ4-E153" x="17105" y="0"></use>
</g>
<g transform="translate(4730,-9402)">
<text font-family="monospace" stroke="none" transform="scale(50.74127551116547) matrix(1 0 0 -1 0 0)">对</text>
<g transform="translate(811,0)">
<text font-family="monospace" stroke="none" transform="scale(50.74127551116547) matrix(1 0 0 -1 0 0)">标</text>
</g>
<g transform="translate(1623,0)">
<text font-family="monospace" stroke="none" transform="scale(50.74127551116547) matrix(1 0 0 -1 0 0)">准</text>
</g>
<g transform="translate(2435,0)">
<text font-family="monospace" stroke="none" transform="scale(50.74127551116547) matrix(1 0 0 -1 0 0)">正</text>
</g>
<g transform="translate(3247,0)">
<text font-family="monospace" stroke="none" transform="scale(50.74127551116547) matrix(1 0 0 -1 0 0)">交</text>
</g>
<g transform="translate(4059,0)">
<text font-family="monospace" stroke="none" transform="scale(50.74127551116547) matrix(1 0 0 -1 0 0)">基</text>
</g>
<g transform="translate(4871,0)">
<text font-family="monospace" stroke="none" transform="scale(50.74127551116547) matrix(1 0 0 -1 0 0)">进</text>
</g>
<g transform="translate(5683,0)">
<text font-family="monospace" stroke="none" transform="scale(50.74127551116547) matrix(1 0 0 -1 0 0)">行</text>
</g>
<g transform="translate(6494,0)">
<text font-family="monospace" stroke="none" transform="scale(50.74127551116547) matrix(1 0 0 -1 0 0)">拉</text>
</g>
<g transform="translate(7306,0)">
<text font-family="monospace" stroke="none" transform="scale(50.74127551116547) matrix(1 0 0 -1 0 0)">伸</text>
</g>
</g>
</g>
<g transform="translate(12,-10320)">
 <use xlink:href="#E1-MJSZ4-E152" x="23" y="0"></use>
<g transform="translate(696.9308251096176,0) scale(22.413771064170266,1)">
 <use xlink:href="#E1-MJSZ4-E154"></use>
</g>
<g transform="translate(9897,0)">
 <use xlink:href="#E1-MJSZ4-E151"></use>
 <use xlink:href="#E1-MJSZ4-E150" x="450" y="0"></use>
</g>
<g transform="translate(11011.714672061129,0) scale(22.413771064170266,1)">
 <use xlink:href="#E1-MJSZ4-E154"></use>
</g>
 <use xlink:href="#E1-MJSZ4-E153" x="20222" y="0"></use>
</g>
<g transform="translate(5477,-11310)">
<text font-family="monospace" stroke="none" transform="scale(50.74127551116547) matrix(1 0 0 -1 0 0)">对</text>
<g transform="translate(811,0)">
<text font-family="monospace" stroke="none" transform="scale(50.74127551116547) matrix(1 0 0 -1 0 0)">拉</text>
</g>
<g transform="translate(1623,0)">
<text font-family="monospace" stroke="none" transform="scale(50.74127551116547) matrix(1 0 0 -1 0 0)">伸</text>
</g>
<g transform="translate(2435,0)">
<text font-family="monospace" stroke="none" transform="scale(50.74127551116547) matrix(1 0 0 -1 0 0)">后</text>
</g>
<g transform="translate(3247,0)">
<text font-family="monospace" stroke="none" transform="scale(50.74127551116547) matrix(1 0 0 -1 0 0)">的</text>
</g>
<g transform="translate(4059,0)">
<text font-family="monospace" stroke="none" transform="scale(50.74127551116547) matrix(1 0 0 -1 0 0)">正</text>
</g>
<g transform="translate(4871,0)">
<text font-family="monospace" stroke="none" transform="scale(50.74127551116547) matrix(1 0 0 -1 0 0)">交</text>
</g>
<g transform="translate(5683,0)">
<text font-family="monospace" stroke="none" transform="scale(50.74127551116547) matrix(1 0 0 -1 0 0)">基</text>
</g>
<g transform="translate(6494,0)">
<text font-family="monospace" stroke="none" transform="scale(50.74127551116547) matrix(1 0 0 -1 0 0)">进</text>
</g>
<g transform="translate(7306,0)">
<text font-family="monospace" stroke="none" transform="scale(50.74127551116547) matrix(1 0 0 -1 0 0)">行</text>
</g>
<g transform="translate(8118,0)">
<text font-family="monospace" stroke="none" transform="scale(50.74127551116547) matrix(1 0 0 -1 0 0)">旋</text>
</g>
<g transform="translate(8930,0)">
<text font-family="monospace" stroke="none" transform="scale(50.74127551116547) matrix(1 0 0 -1 0 0)">转</text>
</g>
</g>
</g>
</g>
</g>
</g>
</g>
</svg>